<?xml version="1.0" encoding="UTF-8"?>
<svg version="1.1" xmlns="http://www.w3.org/2000/svg" width="2560" height="1440">
<path d="M0 0 C844.8 0 1689.6 0 2560 0 C2560 475.2 2560 950.4 2560 1440 C1715.2 1440 870.4 1440 0 1440 C0 964.8 0 489.6 0 0 Z " fill="#2A8DC6" transform="translate(0,0)"/>
<path d="M0 0 C1.28130716 -0.00679667 1.28130716 -0.00679667 2.58849931 -0.01373065 C5.43838872 -0.02634629 8.28808632 -0.02475605 11.13800049 -0.02310181 C13.18699895 -0.02908921 15.23599515 -0.03589525 17.2849884 -0.04345703 C22.84560173 -0.06111222 28.40615346 -0.06581249 33.96679211 -0.0670886 C37.44800388 -0.06851214 40.92920011 -0.0727858 44.41040802 -0.07808304 C56.57661427 -0.09658856 68.74277673 -0.10475385 80.90899658 -0.10317993 C92.21221758 -0.10198153 103.5152467 -0.12302332 114.81841922 -0.15466726 C124.54787292 -0.18092504 134.27726439 -0.19154311 144.00675321 -0.19026911 C149.80605134 -0.18976185 155.60517929 -0.1953126 161.40444183 -0.21662521 C166.87106658 -0.23616565 172.33736173 -0.23602524 177.80399895 -0.22159195 C179.79560014 -0.21952152 181.78722281 -0.22409746 183.77878761 -0.23631287 C201.04493355 -0.33523845 217.61632067 1.47173083 233.2756958 9.26742554 C234.21800049 9.73148804 235.16030518 10.19555054 236.13116455 10.67367554 C258.00095204 22.0157998 276.189996 41.7175 283.71124268 65.33383179 C283.95938721 66.13691772 284.20753174 66.94000366 284.4631958 67.76742554 C284.72294189 68.57051147 284.98268799 69.37359741 285.25030518 70.20101929 C285.49973877 70.99637085 285.74917236 71.79172241 286.00616455 72.61117554 C286.22683594 73.31435913 286.44750732 74.01754272 286.67486572 74.74203491 C288.32353635 81.67167692 288.42425115 88.5769353 288.42286682 95.65986633 C288.42654351 96.68123973 288.4302202 97.70261313 288.4340083 98.75493723 C288.44498701 102.16397172 288.44887899 105.57297567 288.45269775 108.98202515 C288.45896653 111.43162634 288.46561369 113.88122659 288.47261047 116.33082581 C288.4917839 123.66760082 288.50242732 131.00436772 288.51133826 138.34116039 C288.51573087 141.80127399 288.52109483 145.26138608 288.52632713 148.72149849 C288.54332535 160.22967047 288.55782089 171.73784154 288.56507587 183.24602413 C288.56698554 186.22670938 288.56890592 189.20739462 288.57086182 192.18807983 C288.57134556 192.92884872 288.5718293 193.66961761 288.5723277 194.43283404 C288.5806337 206.44109912 288.6059865 218.44926479 288.63844249 230.45748644 C288.67153147 242.80091061 288.68952596 255.14428423 288.69272012 267.48775297 C288.69488263 274.41236368 288.70359423 281.33682904 288.72918129 288.26139641 C288.75318756 294.77279942 288.75670258 301.28398802 288.74641991 307.79544258 C288.74592408 310.18310033 288.75225833 312.57077089 288.76597595 314.95838928 C288.78367527 318.22190661 288.77659766 321.48448294 288.76344299 324.7480011 C288.77989686 326.15959791 288.77989686 326.15959791 288.79668313 327.59971184 C288.70904861 336.6260963 285.57012578 343.84876439 279.3694458 350.40414429 C271.9837972 356.97682038 265.35335318 358.94229872 255.53741455 358.67367554 C248.03900119 357.73974142 242.88709608 354.24382669 236.6897583 350.14242554 C226.96503734 344.80161769 213.78240026 344.55925785 203.09991455 346.99008179 C200.6773874 347.92066375 198.51414794 348.95814221 196.2756958 350.26742554 C195.55124268 350.68765991 194.82678955 351.10789429 194.0803833 351.54086304 C192.76012708 352.34470907 191.45153341 353.16844404 190.16241455 354.02133179 C175.9833506 363.38597236 159.01027776 364.78802734 142.50616455 361.41976929 C134.00547598 359.30975664 126.78417194 355.56313949 119.32647705 351.07211304 C109.5167777 345.26919229 98.12063034 344.58636814 87.0491333 346.95883179 C81.54014342 348.81326641 77.11479514 351.61843025 72.3850708 354.93930054 C65.68355059 359.15877623 57.33749923 359.05274373 49.73272705 357.87289429 C41.84074533 355.97637155 35.92148934 351.53605664 31.63897705 344.62680054 C28.86190347 339.18405461 27.14997135 334.70742953 27.15544128 328.55375671 C27.15337929 326.76797714 27.15337929 326.76797714 27.15127563 324.94612122 C27.15666855 322.98461876 27.15666855 322.98461876 27.16217041 320.98348999 C27.16245245 319.59390261 27.16229421 318.20431508 27.16172791 316.81472778 C27.1614406 313.0402194 27.16732654 309.2657427 27.17430186 305.49124169 C27.18054652 301.54743119 27.18114008 297.60361998 27.18232727 293.6598053 C27.1854373 286.19067069 27.19364628 278.72155069 27.20367676 271.25242251 C27.21484808 262.74949376 27.22035092 254.24656431 27.2253722 245.74363005 C27.23582915 228.25155342 27.25342225 210.75949102 27.2756958 193.26742554 C26.53511429 193.27852859 25.79453278 193.28963165 25.0315094 193.30107117 C18.04303902 193.40136812 11.05467657 193.4774386 4.06567097 193.5264864 C0.47268721 193.55255098 -3.11970056 193.58788883 -6.71234131 193.6446228 C-10.18128606 193.69905889 -13.64965859 193.72886969 -17.11899757 193.74181175 C-19.08281471 193.75551003 -21.04640245 193.79452572 -23.00987244 193.83390808 C-31.91904202 193.83670988 -31.91904202 193.83670988 -35.95013428 190.98690796 C-38.96463986 186.36621474 -39.97473021 183.60519591 -39.98500061 178.00053406 C-39.99208542 176.71226212 -39.99917023 175.42399017 -40.00646973 174.09667969 C-40.0041759 172.6709286 -40.0016662 171.24517786 -39.9989624 169.81942749 C-40.00331025 168.31621548 -40.00849364 166.81300569 -40.01445007 165.30979919 C-40.027848 161.2268924 -40.02841754 157.14407814 -40.02588677 153.06115365 C-40.02481694 149.64943802 -40.02970108 146.2377411 -40.03449219 142.82602948 C-40.04559153 134.77205678 -40.04602332 126.71813071 -40.03997803 118.66415405 C-40.03394594 110.36743156 -40.04622875 102.07087898 -40.0675481 93.77418548 C-40.08519428 86.64365127 -40.09116044 79.51317098 -40.08791035 72.38261575 C-40.08610112 68.12733258 -40.08869702 63.87217044 -40.10262489 59.61690712 C-40.11524669 55.61053018 -40.11321825 51.60441657 -40.100214 47.59804344 C-40.09785758 46.13277979 -40.10054923 44.66749736 -40.10883713 43.20225525 C-40.17703554 30.20086678 -38.21896367 20.18431934 -29.0602417 10.50961304 C-20.71613272 2.92752314 -11.09267226 -0.04361926 0 0 Z " fill="#0DB461" transform="translate(401.72430419921875,538.7325744628906)"/>
<path d="M0 0 C7.68298219 5.6080162 14.10408476 12.4225185 16 22 C16.09018261 24.27222569 16.12196173 26.54696991 16.12025452 28.82098389 C16.12110894 29.50635483 16.12196337 30.19172577 16.12284368 30.89786553 C16.12449018 33.19333021 16.1189907 35.48872174 16.11352539 37.78417969 C16.11324331 39.43006895 16.11340165 41.07595834 16.1139679 42.72184753 C16.11425507 47.19048742 16.1083712 51.65910053 16.10139394 56.12773418 C16.09514715 60.79757743 16.09455555 65.46742128 16.09336853 70.13726807 C16.09025913 78.98050782 16.082051 87.82373522 16.07201904 96.66696954 C16.06084577 106.7345837 16.05534439 116.80219844 16.05032361 126.86981726 C16.03986808 147.57988507 16.02227619 168.28994176 16 189 C8.26351895 189.11598804 0.52712835 189.20476267 -7.21002483 189.25906086 C-10.8030086 189.28512544 -14.39539636 189.32046329 -17.98803711 189.37719727 C-21.45698186 189.43163335 -24.92535439 189.46144416 -28.39469337 189.47438622 C-30.35851051 189.48808449 -32.32209825 189.52710018 -34.28556824 189.56648254 C-43.19473782 189.56928435 -43.19473782 189.56928435 -47.22583008 186.71948242 C-50.24033566 182.0987892 -51.25042602 179.33777037 -51.26069641 173.73310852 C-51.26778122 172.44483658 -51.27486603 171.15656464 -51.28216553 169.82925415 C-51.2798717 168.40350307 -51.277362 166.97775232 -51.2746582 165.55200195 C-51.27900605 164.04878994 -51.28418944 162.54558015 -51.29014587 161.04237366 C-51.3035438 156.95946686 -51.30411334 152.87665261 -51.30158257 148.79372811 C-51.30051275 145.38201248 -51.30539688 141.97031556 -51.310188 138.55860394 C-51.32128733 130.50463124 -51.32171912 122.45070517 -51.31567383 114.39672852 C-51.30964174 106.10000602 -51.32192455 97.80345344 -51.3432439 89.50675994 C-51.36089008 82.37622573 -51.36685624 75.24574544 -51.36360615 68.11519021 C-51.36179692 63.85990704 -51.36439282 59.60474491 -51.37832069 55.34948158 C-51.39094249 51.34310464 -51.38891405 47.33699104 -51.37590981 43.3306179 C-51.37355338 41.86535425 -51.37624503 40.40007182 -51.38453293 38.93482971 C-51.45273134 25.93344124 -49.49465947 15.9168938 -40.3359375 6.2421875 C-29.13693704 -3.93407319 -13.53432853 -7.80584529 0 0 Z " fill="#135638" transform="translate(413,543)"/>
<path d="M0 0 C2.71539605 2.47325882 5.30801634 5.01411654 7.83984375 7.67578125 C6.541609 11.4914052 5.09017517 13.74669004 2.15234375 16.48828125 C-1.27102984 19.76901427 -4.38893861 23.17387222 -7.421875 26.81640625 C-9.48975197 29.02833757 -11.76398845 30.83069122 -14.16015625 32.67578125 C-14.76601562 31.93972656 -15.371875 31.20367188 -15.99609375 30.4453125 C-22.33530958 23.06256422 -28.4432294 17.82610117 -38.16015625 15.67578125 C-48.45455503 14.96791493 -57.39520327 14.4898165 -66.16015625 20.67578125 C-67.04703125 21.23265625 -67.93390625 21.78953125 -68.84765625 22.36328125 C-77.86828616 31.38391116 -84.35679003 43.93508167 -84.43920898 56.8269043 C-84.42962158 57.54015869 -84.42003418 58.25341309 -84.41015625 58.98828125 C-84.40121338 59.73956299 -84.39227051 60.49084473 -84.38305664 61.26489258 C-84.11627492 74.07456204 -80.6477662 86.52253641 -71.16015625 95.67578125 C-71.16015625 96.33578125 -71.16015625 96.99578125 -71.16015625 97.67578125 C-70.35578125 98.04703125 -70.35578125 98.04703125 -69.53515625 98.42578125 C-67.16015625 99.67578125 -67.16015625 99.67578125 -64.28515625 101.67578125 C-55.89854086 107.0432151 -45.4934501 106.96403956 -35.953125 105.0234375 C-28.440525 102.57527554 -22.36581849 98.8230863 -18.59375 91.73046875 C-16.56555039 87.02689473 -15.1680979 82.71548951 -14.16015625 77.67578125 C-25.71015625 77.67578125 -37.26015625 77.67578125 -49.16015625 77.67578125 C-49.16015625 69.09578125 -49.16015625 60.51578125 -49.16015625 51.67578125 C-26.39015625 51.67578125 -3.62015625 51.67578125 19.83984375 51.67578125 C19.83984375 100.57435776 19.83984375 100.57435776 0.83984375 119.67578125 C0.06253906 120.50529297 0.06253906 120.50529297 -0.73046875 121.3515625 C-13.21847374 133.47996525 -32.03585223 137.97533566 -48.78515625 138.11328125 C-50.34061157 138.12875 -50.34061157 138.12875 -51.92749023 138.14453125 C-71.43454419 137.92217585 -86.70804634 129.68025168 -100.55859375 116.37109375 C-115.44878007 100.87107045 -122.71410265 79.74279063 -122.51342773 58.43066406 C-121.82868268 35.37021781 -112.37364669 16.67102231 -96.125 0.671875 C-70.06731636 -23.31362704 -26.64640372 -22.24795704 0 0 Z " fill="#000101" transform="translate(1105.16015625,665.32421875)"/>
<path d="M0 0 C1.25031006 0.00809692 1.25031006 0.00809692 2.52587891 0.01635742 C11.6286111 0.23904078 19.09949028 2.61341328 26.8125 7.4375 C26.8125 5.7875 26.8125 4.1375 26.8125 2.4375 C37.3725 2.4375 47.9325 2.4375 58.8125 2.4375 C58.8125 53.9175 58.8125 105.3975 58.8125 158.4375 C48.2525 158.4375 37.6925 158.4375 26.8125 158.4375 C26.4825 110.2575 26.1525 62.0775 25.8125 12.4375 C22.8425 18.3775 19.8725 24.3175 16.8125 30.4375 C15.1625 30.1075 13.5125 29.7775 11.8125 29.4375 C10.10745136 29.30275451 8.3975768 29.21887756 6.6875 29.1875 C5.83929687 29.16171875 4.99109375 29.1359375 4.1171875 29.109375 C1.3084164 29.50926783 0.4984526 30.19654437 -1.1875 32.4375 C-2.33044314 35.86632941 -2.39714472 38.67832838 -2.50390625 42.29296875 C-2.52468735 42.95460526 -2.54546844 43.61624176 -2.56687927 44.29792786 C-2.63214727 46.40684852 -2.69115344 48.51589135 -2.75 50.625 C-2.79320689 52.05665315 -2.83682188 53.48829404 -2.88085938 54.91992188 C-2.98857185 58.42565796 -3.08781308 61.93148975 -3.1875 65.4375 C3.7425 65.4375 10.6725 65.4375 17.8125 65.4375 C17.8125 73.6875 17.8125 81.9375 17.8125 90.4375 C10.8825 90.4375 3.9525 90.4375 -3.1875 90.4375 C-3.1875 112.8775 -3.1875 135.3175 -3.1875 158.4375 C-13.7475 158.4375 -24.3075 158.4375 -35.1875 158.4375 C-35.1875 135.6675 -35.1875 112.8975 -35.1875 89.4375 C-39.8075 89.4375 -44.4275 89.4375 -49.1875 89.4375 C-49.1875 81.5175 -49.1875 73.5975 -49.1875 65.4375 C-44.5675 65.4375 -39.9475 65.4375 -35.1875 65.4375 C-35.23390625 63.27832031 -35.2803125 61.11914062 -35.328125 58.89453125 C-35.35949914 56.75629007 -35.38368434 54.61807649 -35.40722656 52.47973633 C-35.42709449 51.01639958 -35.45419882 49.55313951 -35.48925781 48.09008789 C-35.82565452 33.66955266 -33.54239125 21.01703003 -24.1875 9.4375 C-17.09923296 2.61434531 -9.69120152 -0.12004207 0 0 Z " fill="#000101" transform="translate(988.1875,443.5625)"/>
<path d="M0 0 C5.293037 3.53802649 9.7310952 7.9967202 14.21484375 12.48046875 C14.60414062 12.04476562 14.9934375 11.6090625 15.39453125 11.16015625 C20.10455857 6.1462562 25.1823632 2.74427313 31.21484375 -0.51953125 C31.83190186 -0.86862549 32.44895996 -1.21771973 33.0847168 -1.57739258 C40.44769748 -4.83398197 53.59213444 -3.66796422 60.96484375 -0.89453125 C63.1796875 0.22265625 63.1796875 0.22265625 65.21484375 1.48046875 C65.93800781 1.91617187 66.66117188 2.351875 67.40625 2.80078125 C74.33201871 7.46897895 77.9361747 13.53411396 80.21484375 21.48046875 C80.45535278 24.89743042 80.45535278 24.89743042 80.44189453 28.67919922 C80.44218658 29.37257889 80.44247864 30.06595856 80.44277954 30.78034973 C80.4413956 33.05291632 80.42587914 35.32514754 80.41015625 37.59765625 C80.40642278 39.18091655 80.40357739 40.76417918 80.40158081 42.34744263 C80.39397063 46.50014708 80.37434481 50.65271005 80.35217285 54.80535889 C80.32804644 59.79558387 80.31892097 64.78585635 80.30726624 69.77612305 C80.28791872 77.34433647 80.2495781 84.91223988 80.21484375 92.48046875 C69.98484375 92.48046875 59.75484375 92.48046875 49.21484375 92.48046875 C49.15876953 86.5559375 49.15876953 86.5559375 49.1015625 80.51171875 C49.0553079 76.67247076 49.00408835 72.83331875 48.95239258 68.99414062 C48.91758588 66.33264268 48.89115614 63.67143732 48.8684082 61.00976562 C48.83474786 57.17678378 48.78242361 53.34443359 48.7265625 49.51171875 C48.72017258 48.32807739 48.71378265 47.14443604 48.7071991 45.92492676 C48.57430605 38.40178068 48.39388186 31.58003091 42.71484375 26.04296875 C37.76601143 22.94994855 32.89689981 22.85207937 27.21484375 23.48046875 C22.14669194 25.87632233 20.3616325 28.40332138 18.21484375 33.48046875 C17.7517172 36.46185795 17.7517172 36.46185795 17.7824707 39.57763672 C17.76267654 40.7584079 17.74288239 41.93917908 17.7224884 43.1557312 C17.71609848 44.41531647 17.70970856 45.67490173 17.703125 46.97265625 C17.6761982 48.9242717 17.6761982 48.9242717 17.64872742 50.91531372 C17.60139554 54.35769662 17.5714782 57.80001475 17.54528809 61.24261475 C17.51539704 64.76213276 17.46905559 68.28143241 17.42382812 71.80078125 C17.33644323 78.69402687 17.27635694 85.58674955 17.21484375 92.48046875 C6.65484375 92.48046875 -3.90515625 92.48046875 -14.78515625 92.48046875 C-14.79933594 88.31421875 -14.81351563 84.14796875 -14.828125 79.85546875 C-14.85340109 76.51614227 -14.88363335 73.17694176 -14.91719818 69.83769226 C-14.95118365 66.32220935 -14.97660306 62.80715947 -14.98071289 59.29150391 C-14.98584277 55.24980791 -15.03105256 51.20939555 -15.078125 47.16796875 C-15.07419235 45.91870605 -15.0702597 44.66944336 -15.06620789 43.38232422 C-15.18545854 36.21493498 -15.84600877 30.93091915 -20.78515625 25.48046875 C-25.04474938 22.55960489 -30.79349066 22.83251216 -35.78515625 23.48046875 C-40.33421094 25.71364105 -42.54282478 27.99342778 -44.78515625 32.48046875 C-45.25186802 35.402885 -45.25186802 35.402885 -45.2175293 38.5559082 C-45.23732346 39.75677567 -45.25711761 40.95764313 -45.2775116 42.19490051 C-45.28709648 44.12483101 -45.28709648 44.12483101 -45.296875 46.09375 C-45.31373183 47.43183532 -45.33188343 48.76990491 -45.35127258 50.10795593 C-45.39867046 53.61775799 -45.42854534 57.12749622 -45.45471191 60.63751221 C-45.48456939 64.22396357 -45.53092165 67.81019963 -45.57617188 71.39648438 C-45.66364062 78.42449596 -45.72367031 85.45198954 -45.78515625 92.48046875 C-56.34515625 92.48046875 -66.90515625 92.48046875 -77.78515625 92.48046875 C-77.78515625 61.79046875 -77.78515625 31.10046875 -77.78515625 -0.51953125 C-67.22515625 -0.51953125 -56.66515625 -0.51953125 -45.78515625 -0.51953125 C-45.29015625 3.93546875 -45.29015625 3.93546875 -44.78515625 8.48046875 C-44.23988281 8.0215625 -43.69460938 7.56265625 -43.1328125 7.08984375 C-31.08506311 -2.71311131 -14.89831894 -7.25278444 0 0 Z " fill="#000000" transform="translate(1270.78515625,509.51953125)"/>
<path d="M0 0 C0 -2.64 0 -5.28 0 -8 C10.56 -8 21.12 -8 32 -8 C32 22.69 32 53.38 32 85 C21.44 85 10.88 85 0 85 C-0.495 80.545 -0.495 80.545 -1 76 C-1.52207031 76.45890625 -2.04414062 76.9178125 -2.58203125 77.390625 C-14.12180517 87.01047156 -25.44515816 88.21094131 -40 87 C-51.67437728 85.33010185 -61.02717516 78.13461862 -68.05859375 68.96484375 C-76.18922482 56.54804499 -79.05028041 41.91541331 -76.3125 27.33984375 C-74.33618298 19.77219649 -71.54318394 13.36274627 -67 7 C-66.56042969 6.36578125 -66.12085938 5.7315625 -65.66796875 5.078125 C-49.40200131 -16.10982106 -19.71154255 -13.67816165 0 0 Z " fill="#000101" transform="translate(1139,517)"/>
<path d="M0 0 C1.19527929 0.8010118 2.38361366 1.61255182 3.5625 2.4375 C4.5525 3.0975 5.5425 3.7575 6.5625 4.4375 C6.5625 1.7975 6.5625 -0.8425 6.5625 -3.5625 C17.1225 -3.5625 27.6825 -3.5625 38.5625 -3.5625 C38.5625 27.1275 38.5625 57.8175 38.5625 89.4375 C28.3325 89.4375 18.1025 89.4375 7.5625 89.4375 C7.2325 86.1375 6.9025 82.8375 6.5625 79.4375 C4.8609375 81.04625 4.8609375 81.04625 3.125 82.6875 C-7.30271807 91.83722065 -18.81630575 92.1111464 -32.05322266 91.61669922 C-40.54886025 90.97817802 -47.16789311 86.93176105 -53.4375 81.4375 C-54.32888672 80.72013672 -54.32888672 80.72013672 -55.23828125 79.98828125 C-63.43621572 72.77191765 -68.68317656 60.80633247 -69.65454102 50.02954102 C-70.46283769 32.7266809 -67.81902192 20.78448116 -56.62890625 7.25 C-42.77111546 -7.96187845 -17.38705233 -10.55085043 0 0 Z " fill="#000000" transform="translate(1632.4375,711.5625)"/>
<path d="M0 0 C1.14146484 -0.00773438 2.28292969 -0.01546875 3.45898438 -0.0234375 C9.69847032 -0.00901928 15.10065472 0.39654193 21.0625 2.25 C21.90296875 2.49878906 22.7434375 2.74757813 23.609375 3.00390625 C36.16617122 7.61251763 46.11050631 16.50833877 52.66015625 28.0703125 C57.57914274 38.78520785 57.89956948 52.39658496 55 63.8125 C49.94008712 77.11819683 40.24667856 87.0535434 27.38671875 92.96484375 C10.32306961 99.56171868 -7.29569679 100.65690159 -24.57421875 93.80859375 C-37.6424871 87.71948709 -46.56692617 79.60279677 -52.1875 66.2890625 C-56.67353911 53.67207749 -56.66700303 40.45866066 -50.9375 28.25 C-49.20594908 24.98689492 -47.25351621 22.12541516 -44.9375 19.25 C-44.33550781 18.49976563 -43.73351563 17.74953125 -43.11328125 16.9765625 C-31.92824208 4.49192831 -16.23703261 -0.10964794 0 0 Z " fill="#000101" transform="translate(1812.9375,705.75)"/>
<path d="M0 0 C10.82717036 9.13491156 16.88501014 19.68634378 18.421875 33.90234375 C19.11769346 47.33196669 15.04701682 59.87930998 6 70 C-6.35111624 81.78970187 -22.17069484 87.28359748 -39.125 87.5 C-55.96372658 87.01746732 -70.23742109 81.08818663 -82 69 C-92.63946908 57.26461994 -93.83470738 43.81334245 -93.22216797 28.63964844 C-92.23086163 16.86162194 -84.34002399 7.67755636 -75.75 0.25 C-54.29831839 -16.58810077 -21.79203864 -15.48301486 0 0 Z " fill="#000101" transform="translate(1907,518)"/>
<path d="M0 0 C9.24827155 6.36676261 15.36672003 14.99197956 18.3125 25.875 C19.24703234 32.41672638 19 39.07935845 19 45.6875 C-3.11 45.6875 -25.22 45.6875 -48 45.6875 C-46.31970395 54.61031192 -46.31970395 54.61031192 -41 60.6875 C-34.48112547 64.59882472 -26.84212663 64.61127615 -19.54296875 63.21875 C-14.48157867 61.77017499 -11.32366863 59.60443499 -7.80078125 55.69921875 C-6 54.6875 -6 54.6875 -3.34765625 55.23046875 C0.84688901 57.0560993 4.85548307 59.13242302 8.875 61.3125 C9.65875 61.73273438 10.4425 62.15296875 11.25 62.5859375 C13.16892057 63.6156022 15.08477603 64.65097567 17 65.6875 C13.27226437 75.80070869 4.95645616 81.59896718 -4.375 86.4375 C-21.21692716 92.24506109 -37.72275043 93.03670737 -54.125 85.4375 C-68.10392467 77.96142953 -76.28921947 66.8198416 -81.25 51.9375 C-83.86533181 40.06247989 -82.14830312 27.49196185 -75.9375 17.0625 C-67.34766477 4.55671047 -56.75000069 -3.71557001 -42 -7.3125 C-41.40574219 -7.49425781 -40.81148437 -7.67601562 -40.19921875 -7.86328125 C-26.02737393 -10.75806305 -12.26377463 -7.28474896 0 0 Z " fill="#000102" transform="translate(2159,514.3125)"/>
<path d="M0 0 C9.49366822 6.49929903 14.56392531 14.67655563 18.4375 25.375 C19.49242365 32.08815049 19.125 38.95446812 19.125 45.75 C-2.985 45.75 -25.095 45.75 -47.875 45.75 C-45.57902673 56.20495702 -45.57902673 56.20495702 -37.9375 62.625 C-31.38768186 64.99895155 -23.44609113 64.92635943 -16.88671875 62.765625 C-12.60533991 60.71056316 -8.91395451 58.47962599 -5.875 54.75 C-0.5212535 56.30652055 4.12650947 58.7317509 9 61.375 C9.78375 61.79523438 10.5675 62.21546875 11.375 62.6484375 C13.29392057 63.6781022 15.20977603 64.71347567 17.125 65.75 C13.85927108 74.60980162 7.24449322 80.17355837 -0.875 84.75 C-15.31318099 90.70147934 -34.29867019 93.15531246 -49.25 87.6875 C-63.1665003 81.11787552 -74.10930763 71.16736939 -79.515625 56.5703125 C-81.12514082 51.52987677 -81.41330341 46.76550714 -81.375 41.5 C-81.36927979 40.5812207 -81.36355957 39.66244141 -81.35766602 38.71582031 C-80.98641985 24.49096718 -74.88786772 14.40128445 -64.8125 4.625 C-46.84955825 -10.82932402 -20.10373305 -11.8400692 0 0 Z " fill="#000101" transform="translate(1214.875,713.25)"/>
<path d="M0 0 C0.82371094 0.44601562 1.64742187 0.89203125 2.49609375 1.3515625 C14.17761762 8.40381468 19.78169156 18.12676626 23 31 C23 36.61 23 42.22 23 48 C0.89 48 -21.22 48 -44 48 C-42.29062012 57.21350769 -42.29062012 57.21350769 -36.453125 63.1875 C-29.74542607 67.31531472 -21.31890039 67.13707941 -13.7890625 65.52734375 C-9.68023268 63.97491257 -6.81365912 61.15975003 -3.87109375 58.01171875 C-2 57 -2 57 0.62890625 57.54296875 C4.96217012 59.41586264 9.17111589 61.47947701 13.375 63.625 C14.20644531 64.04523438 15.03789063 64.46546875 15.89453125 64.8984375 C17.93156359 65.92866075 19.96662189 66.96258821 22 68 C15.62320279 79.96741395 5.55756377 86.83077889 -7.25 90.8125 C-13.23029294 92.1829838 -19.14298086 92.28167178 -25.25 92.3125 C-26.18489258 92.31805908 -27.11978516 92.32361816 -28.08300781 92.3293457 C-42.43646004 92.17999014 -54.18277588 86.72948154 -64.51953125 76.765625 C-74.54460398 65.5880636 -77.89566833 52.57601963 -77.34375 37.828125 C-76.17842015 24.85058801 -68.65996461 13.39960233 -58.88671875 5.078125 C-42.42329636 -6.77375688 -18.1907391 -10.12680321 0 0 Z " fill="#000101" transform="translate(1442,512)"/>
<path d="M0 0 C0.82371094 0.44601562 1.64742187 0.89203125 2.49609375 1.3515625 C13.90261375 8.23779211 19.81716343 18.2686537 23 31 C23 36.61 23 42.22 23 48 C0.89 48 -21.22 48 -44 48 C-42.29062012 57.21350769 -42.29062012 57.21350769 -36.453125 63.1875 C-29.74542607 67.31531472 -21.31890039 67.13707941 -13.7890625 65.52734375 C-9.68023268 63.97491257 -6.81365912 61.15975003 -3.87109375 58.01171875 C-2 57 -2 57 0.62890625 57.54296875 C4.96217012 59.41586264 9.17111589 61.47947701 13.375 63.625 C14.20644531 64.04523438 15.03789063 64.46546875 15.89453125 64.8984375 C17.93156359 65.92866075 19.96662189 66.96258821 22 68 C15.70298569 79.81768438 5.94707279 86.38228159 -6.5546875 90.61328125 C-12.43412973 92.33419987 -18.03622989 92.40823538 -24.125 92.3125 C-25.15753906 92.31572266 -26.19007812 92.31894531 -27.25390625 92.32226562 C-41.49861454 92.22246194 -53.36212878 87.4049767 -63.7421875 77.4921875 C-74.13249689 66.02329928 -77.66904795 53.43423223 -77.3359375 38.171875 C-76.64497539 25.71171524 -69.14556069 14.70128974 -60.375 6.25 C-44.29401724 -6.95937869 -18.40855703 -10.24806268 0 0 Z " fill="#000101" transform="translate(1440,711)"/>
<path d="M0 0 C0.83974365 0.00757324 1.6794873 0.01514648 2.54467773 0.02294922 C9.24406271 0.20011662 14.75884352 1.32596389 20.75 4.4375 C21.63171875 4.87320312 22.5134375 5.30890625 23.421875 5.7578125 C31.6338204 10.20392495 36.19906993 15.62960139 39.10624695 24.5459137 C40.46647394 30.65573132 40.11125626 36.96353056 40.04296875 43.19140625 C40.03736328 44.7031156 40.03309768 46.21483046 40.03010559 47.72654724 C40.01873155 51.67708777 39.98933001 55.62728967 39.95599365 59.57769775 C39.91969063 64.3326747 39.9060961 69.08776581 39.88863373 73.8428421 C39.85968686 81.04129585 39.80214898 88.23900876 39.75 95.4375 C29.19 95.4375 18.63 95.4375 7.75 95.4375 C7.73582031 91.3434375 7.72164062 87.249375 7.70703125 83.03125 C7.6817542 79.74926998 7.65152179 76.46741808 7.61795807 73.18551636 C7.58397609 69.73068566 7.55855377 66.27629541 7.55444336 62.82128906 C7.54931264 58.84921233 7.50409751 54.87805957 7.45703125 50.90625 C7.4609639 49.67886108 7.46489655 48.45147217 7.46894836 47.18688965 C7.34738597 40.00445587 6.58604633 34.93590884 1.75 29.4375 C-1.58931192 26.40176189 -4.18844711 25.17229478 -8.625 24.875 C-14.51665245 25.1626396 -18.75120576 27.90150287 -22.82421875 32.03515625 C-26.38481155 36.1874808 -27.3724209 38.52022717 -27.45532227 43.89697266 C-27.47526749 45.03800446 -27.49521271 46.17903625 -27.51576233 47.35464478 C-27.54083107 49.20936905 -27.54083107 49.20936905 -27.56640625 51.1015625 C-27.58718735 52.36390717 -27.60796844 53.62625183 -27.62937927 54.92684937 C-27.68377926 58.28382045 -27.73400236 61.64080189 -27.78222656 64.99786377 C-27.83245042 68.42311055 -27.88807904 71.84826921 -27.94335938 75.2734375 C-28.05143832 81.99472431 -28.15047016 88.71605933 -28.25 95.4375 C-38.81 95.4375 -49.37 95.4375 -60.25 95.4375 C-60.25 64.7475 -60.25 34.0575 -60.25 2.4375 C-49.69 2.4375 -39.13 2.4375 -28.25 2.4375 C-27.755 6.8925 -27.755 6.8925 -27.25 11.4375 C-26.18072266 10.62345703 -26.18072266 10.62345703 -25.08984375 9.79296875 C-24.13207031 9.07753906 -23.17429687 8.36210938 -22.1875 7.625 C-21.24777344 6.91730469 -20.30804687 6.20960938 -19.33984375 5.48046875 C-12.87254976 1.20436918 -7.58684007 -0.09575697 0 0 Z " fill="#000000" transform="translate(1646.25,506.5625)"/>
<path d="M0 0 C0.83974365 0.00757324 1.6794873 0.01514648 2.54467773 0.02294922 C9.24406271 0.20011662 14.75884352 1.32596389 20.75 4.4375 C21.63171875 4.87320312 22.5134375 5.30890625 23.421875 5.7578125 C31.6338204 10.20392495 36.19906993 15.62960139 39.10624695 24.5459137 C40.46647394 30.65573132 40.11125626 36.96353056 40.04296875 43.19140625 C40.03736328 44.7031156 40.03309768 46.21483046 40.03010559 47.72654724 C40.01873155 51.67708777 39.98933001 55.62728967 39.95599365 59.57769775 C39.91969063 64.3326747 39.9060961 69.08776581 39.88863373 73.8428421 C39.85968686 81.04129585 39.80214898 88.23900876 39.75 95.4375 C29.19 95.4375 18.63 95.4375 7.75 95.4375 C7.73582031 91.3434375 7.72164062 87.249375 7.70703125 83.03125 C7.6817542 79.74926998 7.65152179 76.46741808 7.61795807 73.18551636 C7.58397609 69.73068566 7.55855377 66.27629541 7.55444336 62.82128906 C7.54931264 58.84921233 7.50409751 54.87805957 7.45703125 50.90625 C7.4609639 49.67886108 7.46489655 48.45147217 7.46894836 47.18688965 C7.34738597 40.00445587 6.58604633 34.93590884 1.75 29.4375 C-1.58931192 26.40176189 -4.18844711 25.17229478 -8.625 24.875 C-14.51665245 25.1626396 -18.75120576 27.90150287 -22.82421875 32.03515625 C-26.38481155 36.1874808 -27.3724209 38.52022717 -27.45532227 43.89697266 C-27.47526749 45.03800446 -27.49521271 46.17903625 -27.51576233 47.35464478 C-27.54083107 49.20936905 -27.54083107 49.20936905 -27.56640625 51.1015625 C-27.58718735 52.36390717 -27.60796844 53.62625183 -27.62937927 54.92684937 C-27.68377926 58.28382045 -27.73400236 61.64080189 -27.78222656 64.99786377 C-27.83245042 68.42311055 -27.88807904 71.84826921 -27.94335938 75.2734375 C-28.05143832 81.99472431 -28.15047016 88.71605933 -28.25 95.4375 C-38.81 95.4375 -49.37 95.4375 -60.25 95.4375 C-60.25 64.7475 -60.25 34.0575 -60.25 2.4375 C-49.69 2.4375 -39.13 2.4375 -28.25 2.4375 C-27.755 6.8925 -27.755 6.8925 -27.25 11.4375 C-26.18072266 10.62345703 -26.18072266 10.62345703 -25.08984375 9.79296875 C-24.13207031 9.07753906 -23.17429687 8.36210938 -22.1875 7.625 C-21.24777344 6.91730469 -20.30804687 6.20960938 -19.33984375 5.48046875 C-12.87254976 1.20436918 -7.58684007 -0.09575697 0 0 Z " fill="#000000" transform="translate(887.25,506.5625)"/>
<path d="M0 0 C7.59212116 4.74507572 12.86294237 10.96471059 15.375 19.609375 C15.9122417 25.01152917 15.84252239 30.38116387 15.765625 35.80078125 C15.75815161 37.35732797 15.75246387 38.91388418 15.74847412 40.47044373 C15.73330394 44.53946553 15.69409854 48.60790344 15.6496582 52.67669678 C15.60126674 57.57345771 15.58313032 62.47041541 15.55984497 67.36734772 C15.52124037 74.78176116 15.44452884 82.194897 15.375 89.609375 C5.145 89.609375 -5.085 89.609375 -15.625 89.609375 C-15.65078125 85.67128906 -15.6765625 81.73320313 -15.703125 77.67578125 C-15.74158575 73.843109 -15.7867333 70.01056944 -15.83251953 66.17797852 C-15.862848 63.52322689 -15.88191139 60.86907745 -15.89599609 58.21411133 C-15.91750897 54.38840496 -15.964206 50.56368859 -16.015625 46.73828125 C-16.01685364 45.55980118 -16.01808228 44.38132111 -16.01934814 43.16712952 C-16.16345805 34.97829365 -17.13140207 28.01776323 -23.1875 22.109375 C-27.52514783 19.44005326 -31.63794386 18.9937992 -36.625 19.609375 C-42.23420117 21.25543964 -45.99246127 24.38948334 -49.37213135 29.08422852 C-51.87556015 34.12986872 -51.47061566 39.55413826 -51.4296875 45.078125 C-51.44339386 46.35417603 -51.45710022 47.63022705 -51.47122192 48.94494629 C-51.50214399 52.31238197 -51.50766036 55.67785856 -51.50054932 59.04528809 C-51.49963223 62.49128867 -51.53223094 65.93696799 -51.5625 69.3828125 C-51.61929942 76.12571463 -51.62075318 82.86541821 -51.625 89.609375 C-62.185 89.609375 -72.745 89.609375 -83.625 89.609375 C-83.625 58.919375 -83.625 28.229375 -83.625 -3.390625 C-73.065 -3.390625 -62.505 -3.390625 -51.625 -3.390625 C-51.625 -0.420625 -51.625 2.549375 -51.625 5.609375 C-51.00753906 5.15046875 -50.39007812 4.6915625 -49.75390625 4.21875 C-34.13627568 -7.09630655 -17.63817333 -9.3440323 0 0 Z " fill="#000000" transform="translate(1333.625,711.390625)"/>
<path d="M0 0 C12.54 0 25.08 0 38 0 C40.50913269 5.56817724 43.01787444 11.13652728 45.52563477 16.70532227 C46.37794643 18.59767731 47.2304825 20.48993129 48.08325195 22.38208008 C49.31260988 25.10991981 50.54114654 27.83812815 51.76953125 30.56640625 C52.14777542 31.40522842 52.52601959 32.2440506 52.91572571 33.10829163 C53.62399639 34.68217695 54.32993224 36.25711586 55.03311157 37.83328247 C55.65949962 39.23696662 56.29130805 40.63824954 56.92953491 42.03659058 C58.2041385 44.8846822 59 46.83964355 59 50 C59.66 50 60.32 50 61 50 C61.16789032 49.46161499 61.33578064 48.92322998 61.50875854 48.36853027 C63.3841964 42.53174122 65.66022795 36.98429359 68.1953125 31.40625 C68.58822479 30.5335144 68.98113708 29.66077881 69.38595581 28.76159668 C70.20916342 26.9355033 71.0344764 25.11035767 71.86181641 23.28613281 C73.13310448 20.4821244 74.39711684 17.67491971 75.66015625 14.8671875 C76.46312032 13.08835141 77.26649093 11.30969876 78.0703125 9.53125 C78.44946808 8.6896936 78.82862366 7.84813721 79.2192688 6.9810791 C79.56988373 6.20937378 79.92049866 5.43766846 80.28173828 4.64257812 C80.59023712 3.96134888 80.89873596 3.28011963 81.21658325 2.57824707 C82 1 82 1 83 0 C85.8116338 -0.08861992 88.59858255 -0.11522355 91.41015625 -0.09765625 C92.25219101 -0.0962413 93.09422577 -0.09482635 93.96177673 -0.09336853 C96.66205335 -0.08775263 99.36224828 -0.07519748 102.0625 -0.0625 C103.88867068 -0.05748705 105.71484266 -0.05292379 107.54101562 -0.04882812 C112.02737542 -0.03777804 116.51367384 -0.02050279 121 0 C120.50081055 0.93126709 120.00162109 1.86253418 119.48730469 2.82202148 C115.00363522 11.19972812 110.59857778 19.61370821 106.25 28.0625 C101.48731076 37.28099925 96.63454785 46.44197924 91.63452148 55.53417969 C88.70861276 60.85756562 85.8148509 66.19660225 82.953125 71.5546875 C82.60902084 72.19880081 82.26491669 72.84291412 81.91038513 73.50654602 C80.20789079 76.69494629 78.50810006 79.88476446 76.81079102 83.07592773 C76.19905029 84.22262939 75.58730957 85.36933105 74.95703125 86.55078125 C74.41022705 87.57856689 73.86342285 88.60635254 73.30004883 89.6652832 C72 92 72 92 71 93 C69.36527118 93.08700342 67.72685945 93.10701063 66.08984375 93.09765625 C65.10048828 93.09443359 64.11113281 93.09121094 63.09179688 93.08789062 C62.05087891 93.07951172 61.00996094 93.07113281 59.9375 93.0625 C58.89271484 93.05798828 57.84792969 93.05347656 56.77148438 93.04882812 C54.1809334 93.03699913 51.59049441 93.02051689 49 93 C41.83897325 79.71645398 34.68716967 66.42808679 27.5625 53.125 C26.94834229 51.97829834 26.33418457 50.83159668 25.70141602 49.65014648 C22.77524971 44.18560988 19.8502516 38.72045115 16.92692566 33.25439453 C15.5697369 30.71697971 14.21201061 28.17985272 12.85421753 25.64276123 C11.90561 23.86971333 10.95779661 22.09624064 10.01000977 20.32275391 C7.02502594 14.74523268 4.01469749 9.19279755 0.85205078 3.71362305 C0 2 0 2 0 0 Z " fill="#000001" transform="translate(1692,509)"/>
<path d="M0 0 C10.56 0 21.12 0 32 0 C32 11.55 32 23.1 32 35 C38.6 35 45.2 35 52 35 C52 42.92 52 50.84 52 59 C45.4 59 38.8 59 32 59 C32.07426934 63.71482248 32.15733283 68.42784001 32.26245117 73.1418457 C32.29555592 74.74298519 32.32363221 76.34423732 32.34643555 77.94555664 C32.38024982 80.25715817 32.43257451 82.56774078 32.48828125 84.87890625 C32.49467117 85.58648575 32.5010611 86.29406525 32.50764465 87.02308655 C32.64763421 91.83347827 33.41101016 97.41101016 37 101 C40.90532683 100.62206515 44.2815754 100.23947487 48 99 C49.20688849 102.55622648 50.38702677 106.12077838 51.5625 109.6875 C51.90474609 110.69490234 52.24699219 111.70230469 52.59960938 112.74023438 C53.07817383 114.20493164 53.07817383 114.20493164 53.56640625 115.69921875 C53.86490479 116.59471436 54.16340332 117.49020996 54.47094727 118.4128418 C55.0691616 121.33821201 54.92794968 123.17058878 54 126 C45.97894856 131.41420972 35.35306902 131.91195203 26 131 C18.25453307 129.08583365 10.92098656 126.14498911 6.3125 119.375 C0.89067184 110.01319381 -0.16659604 99.6237953 -0.09765625 89.00390625 C-0.0962413 88.17036118 -0.09482635 87.3368161 -0.09336853 86.47801208 C-0.08781168 83.83947014 -0.0752674 81.20101591 -0.0625 78.5625 C-0.05747942 76.76367311 -0.05291749 74.96484487 -0.04882812 73.16601562 C-0.03785643 68.77731042 -0.02062196 64.38867004 0 60 C-4.29 60 -8.58 60 -13 60 C-13 51.75 -13 43.5 -13 35 C-8.71 35 -4.42 35 0 35 C0 23.45 0 11.9 0 0 Z " fill="#000102" transform="translate(1698,673)"/>
<path d="M0 0 C11.22 0 22.44 0 34 0 C34 49.5 34 99 34 150 C22.78 150 11.56 150 0 150 C0 100.5 0 51 0 0 Z " fill="#000203" transform="translate(771,452)"/>
<path d="M0 0 C11.22 0 22.44 0 34 0 C34 49.17 34 98.34 34 149 C22.78 149 11.56 149 0 149 C0 99.83 0 50.66 0 0 Z " fill="#000000" transform="translate(1530,453)"/>
<path d="M0 0 C-1.42684596 3.10917296 -2.86828703 6.21136053 -4.3125 9.3125 C-4.71662109 10.19357422 -5.12074219 11.07464844 -5.53710938 11.98242188 C-5.93349609 12.82998047 -6.32988281 13.67753906 -6.73828125 14.55078125 C-7.09962158 15.33106689 -7.46096191 16.11135254 -7.83325195 16.9152832 C-9.00127463 19.00227748 -10.23005601 20.40816358 -12 22 C-12.66257812 21.51402344 -13.32515625 21.02804687 -14.0078125 20.52734375 C-17.68068416 18.65254895 -20.84309551 18.5030006 -24.875 18.5625 C-25.94790283 18.57494751 -25.94790283 18.57494751 -27.04248047 18.58764648 C-33.71468018 18.80260729 -36.91523905 19.95136037 -41.66796875 24.6484375 C-46.84027604 30.27531812 -48.44547736 34.88096129 -48.2421875 42.515625 C-47.55509136 49.56390149 -43.31940282 55.50691218 -38 60 C-30.62559096 63.15319559 -21.70986762 63.32926839 -14.1875 60.5 C-13.135625 60.005 -12.08375 59.51 -11 59 C-9.70506805 61.39411837 -8.41397828 63.7901788 -7.125 66.1875 C-6.57779297 67.19780273 -6.57779297 67.19780273 -6.01953125 68.22851562 C-0.92878413 77.71581707 -0.92878413 77.71581707 -1.12109375 81.18359375 C-2.68671692 84.41921496 -5.55323114 84.87737784 -8.78125 86.05078125 C-24.68854701 90.74188947 -40.24652995 92.14693454 -55.5625 84.5 C-68.99282322 76.56746991 -78.06053314 65.52398477 -82.30859375 50.43359375 C-85.07710174 36.68490154 -82.13234355 25.5488994 -74.94140625 13.82421875 C-68.00033802 3.72684987 -56.69038837 -4.73751708 -44.62109375 -7.55541992 C-29.2320236 -10.16565621 -12.95773242 -9.05709344 0 0 Z " fill="#000102" transform="translate(2071,515)"/>
<path d="M0 0 C-0.61746621 3.87375564 -1.7918964 6.99712018 -3.50390625 10.51953125 C-3.99697266 11.54111328 -4.49003906 12.56269531 -4.99804688 13.61523438 C-5.51431641 14.67033203 -6.03058594 15.72542969 -6.5625 16.8125 C-7.08263672 17.88693359 -7.60277344 18.96136719 -8.13867188 20.06835938 C-9.4207045 22.71475699 -10.70796111 25.3584771 -12 28 C-14.95564222 27.02839386 -17.86959724 26.05334658 -20.75 24.875 C-27.66078108 23.01440509 -34.01776661 23.13891724 -40.3125 26.73046875 C-44.41131721 29.81406966 -46.35938169 34.27945379 -48 39 C-48.32172853 41.60202819 -48.32172853 41.60202819 -48.31884766 44.34106445 C-48.33871735 45.3817659 -48.35858704 46.42246735 -48.37905884 47.4947052 C-48.39638565 49.16215034 -48.39638565 49.16215034 -48.4140625 50.86328125 C-48.43342865 52.01040085 -48.4527948 53.15752045 -48.4727478 54.33940125 C-48.53244467 57.9970256 -48.57889002 61.65468159 -48.625 65.3125 C-48.66318883 67.79493547 -48.70224108 70.27735782 -48.7421875 72.75976562 C-48.83976037 78.83977481 -48.91940934 84.9196471 -49 91 C-59.56 91 -70.12 91 -81 91 C-81 60.31 -81 29.62 -81 -2 C-70.44 -2 -59.88 -2 -49 -2 C-48.505 4.435 -48.505 4.435 -48 11 C-46.989375 9.783125 -45.97875 8.56625 -44.9375 7.3125 C-31.96006443 -7.40739686 -17.26626369 -7.05774282 0 0 Z " fill="#000102" transform="translate(1965,710)"/>
<path d="M0 0 C-0.55049295 4.26700508 -1.54671299 7.57403688 -3.50390625 11.3984375 C-3.99697266 12.37167969 -4.49003906 13.34492187 -4.99804688 14.34765625 C-5.77245117 15.84619141 -5.77245117 15.84619141 -6.5625 17.375 C-7.08263672 18.39722656 -7.60277344 19.41945313 -8.13867188 20.47265625 C-9.41860474 22.98555196 -10.70587131 25.49439392 -12 28 C-14.58702274 26.96692716 -17.17172047 25.92975072 -19.75 24.875 C-26.88358602 22.95441915 -33.44366751 23.52812393 -40 27 C-43.5861187 29.81074168 -45.34270574 32.77323308 -47 37 C-47.47275404 41.12966964 -47.48864398 45.24486968 -47.51171875 49.3984375 C-47.52966995 50.58853424 -47.54762115 51.77863098 -47.56611633 53.00479126 C-47.6201699 56.79482513 -47.65410029 60.58473338 -47.6875 64.375 C-47.72067732 66.94923621 -47.75516736 69.52345585 -47.79101562 72.09765625 C-47.87835745 78.39845511 -47.93847201 84.69868483 -48 91 C-58.56 91 -69.12 91 -80 91 C-80 60.31 -80 29.62 -80 -2 C-69.44 -2 -58.88 -2 -48 -2 C-47.505 3.445 -47.505 3.445 -47 9 C-45.68 7.7625 -44.36 6.525 -43 5.25 C-30.57567032 -5.822155 -14.8365748 -7.04108635 0 0 Z " fill="#000101" transform="translate(1559,710)"/>
<path d="M0 0 C1.05838577 -0.01134979 2.11677155 -0.02269958 3.20722961 -0.03439331 C4.35802002 -0.03146271 5.50881042 -0.0285321 6.69447327 -0.0255127 C8.52453667 -0.03821701 8.52453667 -0.03821701 10.39157104 -0.05117798 C13.73059462 -0.0705493 17.06905895 -0.07632648 20.40810084 -0.07443047 C23.198832 -0.07431061 25.98951109 -0.08288061 28.78022772 -0.09120798 C35.36561066 -0.11042949 41.95086684 -0.11333035 48.53627014 -0.10656738 C55.32281377 -0.09992597 62.10881398 -0.12279719 68.8952474 -0.15988111 C74.72897116 -0.1905986 80.56252027 -0.201936 86.39632326 -0.1980443 C89.87752032 -0.19597901 93.35829435 -0.20142116 96.8394146 -0.22593689 C100.72230627 -0.25238 104.60448836 -0.23846036 108.48744202 -0.2208252 C109.63620819 -0.23408844 110.78497437 -0.24735168 111.96855164 -0.26101685 C120.657248 -0.16924399 120.657248 -0.16924399 124.29116821 2.74536133 C128.41683212 7.36754048 129.10820564 9.93957438 128.96815491 15.95300293 C128.51486896 19.49429936 127.32997859 21.07197019 124.65565491 23.39440918 C118.94600196 27.20217213 113.39461062 26.81849202 106.77870178 26.78259277 C105.5877742 26.78784973 104.39684662 26.79310669 103.16983032 26.79852295 C99.91562974 26.80944005 96.66179715 26.80691533 93.40760231 26.79738569 C89.99512103 26.7897675 86.58266357 26.79684069 83.17018127 26.80154419 C77.44052241 26.80699548 71.71097971 26.79982667 65.9813385 26.78552246 C59.36587638 26.76919705 52.75069167 26.77448601 46.13523626 26.79100168 C40.44587255 26.80463449 34.75659213 26.80652747 29.06721735 26.79868567 C25.67334607 26.79401898 22.279605 26.79335649 18.88574219 26.80329514 C15.10117337 26.81091391 11.31713719 26.79929833 7.53260803 26.78259277 C5.85389366 26.79170181 5.85389366 26.79170181 4.14126587 26.80099487 C-1.42631875 26.75546755 -5.56362668 26.59859359 -10.34434509 23.39440918 C-13.23072118 20.27650559 -14.26018585 16.99404381 -14.84434509 12.83190918 C-14.2387967 8.66876395 -13.04257844 6.6031191 -10.34434509 3.39440918 C-6.78842563 0.85929866 -4.34858694 0.01768679 0 0 Z " fill="#F7FCF9" transform="translate(502.34434509277344,689.6055908203125)"/>
<path d="M0 0 C1.04715179 -0.01004562 2.09430359 -0.02009125 3.17318726 -0.03044128 C4.31665115 -0.03627228 5.46011505 -0.04210327 6.63822937 -0.04811096 C7.84676575 -0.05789474 9.05530212 -0.06767853 10.30046082 -0.07775879 C14.30325866 -0.10769514 18.30602098 -0.12939908 22.30888367 -0.14796448 C23.33175087 -0.15291046 23.33175087 -0.15291046 24.37528205 -0.15795636 C30.81029276 -0.18872871 37.24530833 -0.21542489 43.68037128 -0.23237514 C51.89960441 -0.25428275 60.1181845 -0.2962721 68.33715659 -0.36581272 C74.12328229 -0.41310102 79.90923205 -0.43731483 85.6955449 -0.44457203 C89.14843356 -0.44952017 92.60058504 -0.46451902 96.05326271 -0.50431633 C99.90729849 -0.54815743 103.76049816 -0.54427502 107.61479187 -0.53639221 C108.75218307 -0.55639282 109.88957428 -0.57639343 111.06143188 -0.59700012 C117.3985845 -0.53880925 121.06082566 0.12222234 125.62080669 4.67732143 C128.05886745 7.69149673 128.09472458 10.30568509 128.03935242 14.13328552 C127.52838896 18.86882188 124.31356832 22.18568423 120.82060242 25.16062927 C118.3589716 25.66120052 118.3589716 25.66120052 115.55181885 25.66183472 C113.95151321 25.67658592 113.95151321 25.67658592 112.31887817 25.69163513 C110.57091698 25.67713318 110.57091698 25.67713318 108.78764343 25.66233826 C107.55638733 25.66774124 106.32513123 25.67314423 105.05656433 25.67871094 C101.68225073 25.68907661 98.30891738 25.68149395 94.93468976 25.66499972 C91.40161575 25.65114205 87.86857112 25.65761023 84.33547974 25.66113281 C78.40131932 25.66383474 72.46736118 25.65036226 66.5332489 25.62718201 C59.67695402 25.60058447 52.82099759 25.59882126 45.96466881 25.61057037 C39.36518505 25.6213588 32.76582348 25.61515198 26.16634941 25.60101509 C23.35982811 25.59526325 20.55339645 25.59533166 17.74687386 25.60008049 C13.82543816 25.60574938 9.90433953 25.58650946 5.98295593 25.56468201 C4.8196727 25.56918365 3.65638947 25.5736853 2.45785522 25.57832336 C0.85331985 25.56346642 0.85331985 25.56346642 -0.78363037 25.54830933 C-1.7103678 25.54587943 -2.63710524 25.54344954 -3.59192562 25.54094601 C-8.09310493 24.87934509 -10.61296556 22.83422411 -13.49189758 19.41062927 C-15.49926086 15.5445963 -15.79394024 13.4624279 -15.17939758 9.16062927 C-11.00361837 1.78341933 -11.00361837 1.78341933 -7.37810993 0.5456686 C-4.88288744 0.10870431 -2.53406085 0.01915463 0 0 Z " fill="#FBFDFC" transform="translate(503.1793975830078,622.8393707275391)"/>
<path d="M0 0 C10.56 0 21.12 0 32 0 C32 30.69 32 61.38 32 93 C21.44 93 10.88 93 0 93 C0 62.31 0 31.62 0 0 Z " fill="#000000" transform="translate(1940,509)"/>
<path d="M0 0 C0.74167923 -0.00817749 1.48335846 -0.01635498 2.24751282 -0.02478027 C4.70764355 -0.04963826 7.1677165 -0.06615255 9.62792969 -0.08056641 C10.46811394 -0.08589008 11.30829819 -0.09121376 12.17394257 -0.09669876 C16.62230009 -0.123434 21.07062953 -0.14280638 25.51904297 -0.15722656 C30.11035266 -0.17386211 34.70094282 -0.21862905 39.29198074 -0.26959801 C42.82479663 -0.30328406 46.35744215 -0.31480551 49.89040375 -0.32045364 C51.58248128 -0.327164 53.27454768 -0.3423806 54.96646881 -0.36634445 C57.33891554 -0.39802569 59.70942784 -0.39802916 62.08203125 -0.390625 C62.77732437 -0.40703033 63.47261749 -0.42343567 64.1889801 -0.44033813 C69.76343997 -0.36935273 72.00109423 1.42181143 75.79980469 5.19287109 C78.11873394 8.46045323 78.2643491 11.24424355 77.79980469 15.19287109 C76.31371401 19.16140871 74.86351719 21.55401994 71.17640686 23.76844788 C67.29957291 25.4038944 64.51205932 25.57952593 60.31323242 25.59692383 C59.58886993 25.60378708 58.86450745 25.61065033 58.11819458 25.61772156 C55.7397261 25.63592408 53.36192116 25.63216268 50.98339844 25.62646484 C49.3224313 25.63102886 47.66146606 25.63633509 46.00050354 25.64234924 C42.52638048 25.65126672 39.05248748 25.64887173 35.57836914 25.63891602 C31.13059596 25.6274107 26.68361486 25.64766812 22.2359457 25.67683315 C18.80864946 25.69519133 15.38154335 25.69490379 11.95421028 25.68919563 C10.3143814 25.68904246 8.67453959 25.6950833 7.03475761 25.70748711 C4.74166147 25.72239394 2.45003314 25.71172531 0.15698242 25.69458008 C-1.14618423 25.69441391 -2.44935089 25.69424774 -3.79200745 25.69407654 C-8.68509516 24.97450288 -10.9861428 22.69997077 -14.01269531 18.94287109 C-15.59745024 15.27291231 -16.13073001 12.06887784 -15.20019531 8.19287109 C-11.05895381 1.59474626 -7.5934569 0.04598834 0 0 Z " fill="#FAFDFC" transform="translate(503.2001953125,757.80712890625)"/>
<path d="M0 0 C5.69306468 3.3446755 9.56747213 8.19009719 11.625 14.4375 C12.53280541 21.4993816 11.9576755 27.64793069 7.625 33.4375 C3.2699042 38.07123938 -0.99147177 41.02593127 -7.42578125 41.80859375 C-14.78519473 41.95842612 -19.79942431 41.46240155 -25.375 36.4375 C-31.29324992 30.20776325 -31.88974127 24.24016576 -31.75 15.890625 C-31.12101448 10.09871663 -28.92427016 6.65765213 -24.58984375 2.8828125 C-17.5553535 -2.40425661 -8.18010729 -3.70240833 0 0 Z " fill="#46BAD6" transform="translate(1628.375,734.5625)"/>
<path d="M0 0 C4.67447889 3.23617769 7.7989037 6.37172228 9 12 C9.79315467 19.66716178 9.8554702 26.6953587 5 33 C1.00686187 37.26664074 -3.27990112 39.73786281 -9.12109375 40.30078125 C-21.59721375 40.34486648 -21.59721375 40.34486648 -26.8359375 35.1953125 C-32.53931327 29.02635503 -34.50111588 24.20692453 -34.30859375 15.78125 C-33.6406683 9.76146621 -31.03046475 5.67880903 -26.625 1.625 C-18.70235683 -4.53891688 -8.69885438 -4.85128417 0 0 Z " fill="#4DC5DA" transform="translate(1130,537)"/>
<path d="M0 0 C5.23163098 3.33323324 8.96412028 8.31259117 10.8515625 14.1796875 C11.75936791 21.2415691 11.184238 27.39011819 6.8515625 33.1796875 C2.4964667 37.81342688 -1.76490927 40.76811877 -8.19921875 41.55078125 C-15.55863223 41.70061362 -20.57286181 41.20458905 -26.1484375 36.1796875 C-32.06668742 29.94995075 -32.66317877 23.98235326 -32.5234375 15.6328125 C-31.89445198 9.84090413 -29.69770766 6.39983963 -25.36328125 2.625 C-18.00397202 -2.90620057 -8.49372118 -3.67012644 0 0 Z " fill="#359FCB" transform="translate(1880.1484375,535.8203125)"/>
<path d="M0 0 C5.5070653 3.14689446 9.69101693 6.30220421 11.625 12.57421875 C13.0478698 19.65045516 12.65835808 26.42624958 9.0625 32.75 C5.49820514 38.04552379 2.22446091 40.52166842 -3.9375 41.75 C-10.36158745 42.45033793 -16.47074323 42.54216259 -22.18359375 39.2265625 C-26.84843514 35.29936864 -30.57265612 29.45226819 -31.17578125 23.33203125 C-31.34847155 16.88795623 -30.87737768 11.9993414 -26.9375 6.75 C-19.57512473 -0.91985266 -10.41665075 -4.19878213 0 0 Z " fill="#3AA7CE" transform="translate(1822.9375,734.25)"/>
<path d="M0 0 C3.95478251 2.91900614 7.41112181 6.50974362 9.625 10.9375 C10.12634255 17.37782357 10.60448918 23.54593401 6.625 28.9375 C1.61369648 33.94880352 -1.96003716 36.07726818 -9.1875 36.25 C-15.34569789 36.18322436 -18.45783169 34.91843155 -22.8046875 30.4765625 C-27.28640305 25.48843841 -27.8011241 21.04452904 -27.71484375 14.53515625 C-26.97019566 8.84330594 -23.54412943 4.64017575 -19.3125 0.9375 C-13.59288231 -2.77523429 -6.23412519 -1.96259497 0 0 Z " fill="#000101" transform="translate(1965.375,453.0625)"/>
<path d="M0 0 C0.96808594 -0.01417969 1.93617187 -0.02835938 2.93359375 -0.04296875 C5.5625 0.1875 5.5625 0.1875 8.5625 2.1875 C7.5725 3.8375 6.5825 5.4875 5.5625 7.1875 C4.840625 6.836875 4.11875 6.48625 3.375 6.125 C0.2502295 5.08340983 -1.31911996 5.29653428 -4.4375 6.1875 C-4.77095007 9.77208827 -4.83348425 11.61552275 -2.75 14.625 C-0.39270342 17.23713945 2.03554793 19.34420826 4.8125 21.5 C5.70453125 22.19738281 6.5965625 22.89476562 7.515625 23.61328125 C8.19109375 24.13277344 8.8665625 24.65226563 9.5625 25.1875 C9.5625 22.5475 9.5625 19.9075 9.5625 17.1875 C7.5825 16.8575 5.6025 16.5275 3.5625 16.1875 C3.5625 14.8675 3.5625 13.5475 3.5625 12.1875 C10.26269789 11.48617087 16.82507354 11.07705039 23.5625 11.1875 C22.6875 15.0625 22.6875 15.0625 21.5625 16.1875 C19.22952567 16.22842937 16.89544775 16.22991723 14.5625 16.1875 C14.748125 17.21875 14.93375 18.25 15.125 19.3125 C15.5625 23.1875 15.5625 23.1875 14.75 26.25 C14.24776015 29.14687178 14.24776015 29.14687178 15.828125 30.89453125 C17.34970245 32.41255361 18.89890228 33.82768969 20.5625 35.1875 C20.2325 36.1775 19.9025 37.1675 19.5625 38.1875 C17.4375 39 17.4375 39 14.5625 39.1875 C12.26142439 37.74326519 10.54603614 36.07877865 8.5625 34.1875 C8.08941406 34.48785156 7.61632813 34.78820312 7.12890625 35.09765625 C2.37525715 37.83123614 -0.95586353 38.66139961 -6.38671875 37.7421875 C-9.12351943 37.00194808 -11.20638203 35.93056091 -13.4375 34.1875 C-15.04146653 30.97956693 -15.07255458 27.65690343 -14.4375 24.1875 C-11.875 21.4375 -11.875 21.4375 -9.4375 19.1875 C-9.52902637 16.07560326 -10.66866251 14.84075623 -12.4375 12.1875 C-12.875 9.3125 -12.875 9.3125 -12.4375 6.1875 C-8.4140169 1.42284896 -6.10953927 0.04056799 0 0 Z " fill="#020708" transform="translate(1423.4375,937.8125)"/>
<path d="M0 0 C3.3 0 6.6 0 10 0 C11.46484375 5.37109375 12.9296875 10.7421875 14.39453125 16.11328125 C14.66088379 17.0770166 14.92723633 18.04075195 15.20166016 19.03369141 C15.74849908 21.06552409 16.26771286 23.10493643 16.76318359 25.14990234 C17.0102002 26.14586426 17.2572168 27.14182617 17.51171875 28.16796875 C17.83402466 29.52378052 17.83402466 29.52378052 18.1628418 30.90698242 C18.439104 31.59767822 18.71536621 32.28837402 19 33 C19.99 33.33 20.98 33.66 22 34 C22 34.99 22 35.98 22 37 C16.39 37 10.78 37 5 37 C5 36.01 5 35.02 5 34 C7.475 33.505 7.475 33.505 10 33 C9.67 30.36 9.34 27.72 9 25 C5.37 25.33 1.74 25.66 -2 26 C-2.33 28.31 -2.66 30.62 -3 33 C-1.68 33.33 -0.36 33.66 1 34 C1 34.99 1 35.98 1 37 C-3.95 37 -8.9 37 -14 37 C-14 35.68 -14 34.36 -14 33 C-13.56067139 32.56389404 -13.12134277 32.12778809 -12.66870117 31.6784668 C-10.20133082 29.19665682 -9.47641588 26.42247722 -8.30078125 23.14453125 C-8.0608696 22.48289474 -7.82095795 21.82125824 -7.57377625 21.13957214 C-6.81208368 19.03330835 -6.06217126 16.92306856 -5.3125 14.8125 C-4.79699625 13.38058111 -4.28072876 11.94893692 -3.76367188 10.51757812 C-2.50024872 7.01485867 -1.24735363 3.50847881 0 0 Z " fill="#020608" transform="translate(1639,938)"/>
<path d="M0 0 C1.23556641 0.01740234 1.23556641 0.01740234 2.49609375 0.03515625 C3.32238281 0.04417969 4.14867187 0.05320312 5 0.0625 C5.63808594 0.07410156 6.27617188 0.08570313 6.93359375 0.09765625 C7.49767945 1.90966338 8.05971053 3.72231004 8.62109375 5.53515625 C8.98589844 6.70820312 9.35070313 7.88125 9.7265625 9.08984375 C10.59173551 11.91602826 11.39590282 14.75354276 12.171875 17.60546875 C12.38175049 18.36158447 12.59162598 19.1177002 12.80786133 19.89672852 C13.21826138 21.38124623 13.6182221 22.86869803 14.0065918 24.35913086 C15.22460361 28.71572815 16.62998681 31.06701684 19.93359375 34.09765625 C19.93359375 35.08765625 19.93359375 36.07765625 19.93359375 37.09765625 C14.32359375 37.09765625 8.71359375 37.09765625 2.93359375 37.09765625 C2.93359375 36.10765625 2.93359375 35.11765625 2.93359375 34.09765625 C4.41859375 33.60265625 4.41859375 33.60265625 5.93359375 33.09765625 C5.93359375 30.78765625 5.93359375 28.47765625 5.93359375 26.09765625 C2.30359375 25.76765625 -1.32640625 25.43765625 -5.06640625 25.09765625 C-5.72640625 27.73765625 -6.38640625 30.37765625 -7.06640625 33.09765625 C-5.41640625 33.42765625 -3.76640625 33.75765625 -2.06640625 34.09765625 C-2.06640625 35.08765625 -2.06640625 36.07765625 -2.06640625 37.09765625 C-7.01640625 37.09765625 -11.96640625 37.09765625 -17.06640625 37.09765625 C-16.73640625 35.77765625 -16.40640625 34.45765625 -16.06640625 33.09765625 C-15.40640625 33.09765625 -14.74640625 33.09765625 -14.06640625 33.09765625 C-13.65648437 31.86015625 -13.2465625 30.62265625 -12.82421875 29.34765625 C-10.90228572 23.5841156 -8.92801669 17.83917874 -6.94140625 12.09765625 C-6.40193359 10.52564453 -6.40193359 10.52564453 -5.8515625 8.921875 C-5.33529297 7.43107422 -5.33529297 7.43107422 -4.80859375 5.91015625 C-4.49776855 5.00910156 -4.18694336 4.10804688 -3.86669922 3.1796875 C-2.69341529 0.12728806 -2.69341529 0.12728806 0 0 Z " fill="#010405" transform="translate(1128.06640625,937.90234375)"/>
<path d="M0 0 C9.24 0 18.48 0 28 0 C27.67 3.63 27.34 7.26 27 11 C25.35 11 23.7 11 22 11 C21.67 9.35 21.34 7.7 21 6 C18.03 6 15.06 6 12 6 C11.67 9.3 11.34 12.6 11 16 C14.96 16 18.92 16 23 16 C23 17.65 23 19.3 23 21 C19.04 21 15.08 21 11 21 C11.33 24.63 11.66 28.26 12 32 C15.3 32 18.6 32 22 32 C22.66 30.02 23.32 28.04 24 26 C25.32 26 26.64 26 28 26 C27.67 29.63 27.34 33.26 27 37 C17.76 37 8.52 37 -1 37 C0 33 0 33 3 31 C3.41737872 28.28516406 3.41737872 28.28516406 3.29296875 25.1171875 C3.28330078 23.95058594 3.27363281 22.78398438 3.26367188 21.58203125 C3.23853516 20.35871094 3.21339844 19.13539063 3.1875 17.875 C3.16719727 16.02841797 3.16719727 16.02841797 3.14648438 14.14453125 C3.11103543 11.09592157 3.06162079 8.048175 3 5 C2.01 4.67 1.02 4.34 0 4 C0 2.68 0 1.36 0 0 Z " fill="#010405" transform="translate(1035,938)"/>
<path d="M0 0 C1.22847656 0.00644531 2.45695312 0.01289062 3.72265625 0.01953125 C6.9375 0.1875 6.9375 0.1875 9.9375 1.1875 C9.6075 4.4875 9.2775 7.7875 8.9375 11.1875 C7.2875 11.5175 5.6375 11.8475 3.9375 12.1875 C3.2775 10.2075 2.6175 8.2275 1.9375 6.1875 C-0.3725 6.1875 -2.6825 6.1875 -5.0625 6.1875 C-5.3925 7.8375 -5.7225 9.4875 -6.0625 11.1875 C-5.55460937 11.50203125 -5.04671875 11.8165625 -4.5234375 12.140625 C7.59634861 19.67577292 7.59634861 19.67577292 9.9375 23.1875 C10.39006282 27.26056536 10.37783197 29.45361339 8.25 33 C3.86263795 37.15020734 -0.28492503 37.46256401 -6.1875 37.4375 C-7.40695312 37.44265625 -8.62640625 37.4478125 -9.8828125 37.453125 C-13.0625 37.1875 -13.0625 37.1875 -16.0625 35.1875 C-15.7325 31.8875 -15.4025 28.5875 -15.0625 25.1875 C-13.4125 25.1875 -11.7625 25.1875 -10.0625 25.1875 C-9.753125 26.156875 -9.44375 27.12625 -9.125 28.125 C-8.36726658 31.02815792 -8.36726658 31.02815792 -7.0625 32.1875 C-2.91973125 32.43483137 -2.91973125 32.43483137 0.9375 31.1875 C1.46614877 28.860966 1.46614877 28.860966 0.9375 26.1875 C-1.18418569 24.56218585 -3.04376961 23.361221 -5.375 22.125 C-12.91411077 18.00013441 -12.91411077 18.00013441 -15.0625 14.1875 C-15.59045493 10.0392827 -15.53863145 7.95271126 -13.3125 4.375 C-9.05360586 0.23440847 -5.90708463 -0.0683259 0 0 Z " fill="#010405" transform="translate(1725.0625,937.8125)"/>
<path d="M0 0 C1.86011719 0.00966797 1.86011719 0.00966797 3.7578125 0.01953125 C6.875 0.1875 6.875 0.1875 8.875 1.1875 C8.545 4.8175 8.215 8.4475 7.875 12.1875 C6.555 12.1875 5.235 12.1875 3.875 12.1875 C3.215 10.2075 2.555 8.2275 1.875 6.1875 C-2.77552872 5.91817479 -2.77552872 5.91817479 -7.125 7.1875 C-7.16410771 9.56061244 -7.16410771 9.56061244 -6.125 12.1875 C-3.7992456 13.79288799 -1.68820844 15.05842818 0.8125 16.3125 C7.64362646 19.84043969 7.64362646 19.84043969 9.875 23.1875 C10.39906828 27.11801214 10.02290087 28.91282696 8.125 32.4375 C5.87142284 35.19187208 5.11984904 36.03627468 1.875 37.1875 C-0.87442755 37.35336526 -3.50606278 37.42163221 -6.25 37.375 C-7.34248047 37.3740332 -7.34248047 37.3740332 -8.45703125 37.37304688 C-13.84351504 37.32824248 -13.84351504 37.32824248 -16.125 36.1875 C-15.795 32.5575 -15.465 28.9275 -15.125 25.1875 C-13.805 25.1875 -12.485 25.1875 -11.125 25.1875 C-10.465 27.1675 -9.805 29.1475 -9.125 31.1875 C-3.84300407 32.38738045 -3.84300407 32.38738045 0.875 30.1875 C0.505405 27.65925592 0.24854827 26.49418402 -1.76171875 24.84375 C-2.43847656 24.4621875 -3.11523438 24.080625 -3.8125 23.6875 C-4.53050781 23.26726563 -5.24851562 22.84703125 -5.98828125 22.4140625 C-6.69339844 22.00929688 -7.39851563 21.60453125 -8.125 21.1875 C-13.86968085 17.57047872 -13.86968085 17.57047872 -16.125 14.1875 C-16.78348355 9.95439146 -16.34876466 8.51071561 -13.875 4.9375 C-9.30767985 0.37017985 -6.45305258 -0.07409559 0 0 Z " fill="#020505" transform="translate(1212.125,937.8125)"/>
<path d="M0 0 C5.61 0 11.22 0 17 0 C16.67 1.32 16.34 2.64 16 4 C15.01 4 14.02 4 13 4 C14.65 7.96 16.3 11.92 18 16 C20.28459758 13.71540242 20.97129748 11.87462656 22.125 8.875 C22.47820312 7.96492187 22.83140625 7.05484375 23.1953125 6.1171875 C23.46085937 5.41851563 23.72640625 4.71984375 24 4 C23.01 4 22.02 4 21 4 C21 2.68 21 1.36 21 0 C25.62 0 30.24 0 35 0 C34.67 1.32 34.34 2.64 34 4 C33.0409375 4.4640625 33.0409375 4.4640625 32.0625 4.9375 C29.21333973 6.40524923 29.14274596 8.04476686 28 11 C26.97043121 12.73639711 25.92815745 14.46530774 24.875 16.1875 C21.83209655 21.62336635 21.28196335 25.87009453 22 32 C23.65 32.33 25.3 32.66 27 33 C26.67 34.32 26.34 35.64 26 37 C20.06 37.33 14.12 37.66 8 38 C8 36.68 8 35.36 8 34 C10.475 33.505 10.475 33.505 13 33 C13.48891571 25.73816375 12.32545674 21.40166387 8.75 15.125 C8.35425781 14.37992188 7.95851563 13.63484375 7.55078125 12.8671875 C5.40572245 8.95685079 3.62640787 6.64494886 0 4 C0 2.68 0 1.36 0 0 Z " fill="#020708" transform="translate(1270,938)"/>
<path d="M0 0 C9.9 0 19.8 0 30 0 C30.33 3.96 30.66 7.92 31 12 C29.35 12 27.7 12 26 12 C25.34 10.02 24.68 8.04 24 6 C21.525 5.505 21.525 5.505 19 5 C19.33 13.91 19.66 22.82 20 32 C21.65 32.33 23.3 32.66 25 33 C25 34.32 25 35.64 25 37 C18.4 37 11.8 37 5 37 C5 36.01 5 35.02 5 34 C6.65 33.34 8.3 32.68 10 32 C10.33 23.09 10.66 14.18 11 5 C9.02 5.66 7.04 6.32 5 7 C4.67 8.65 4.34 10.3 4 12 C2.35 12 0.7 12 -1 12 C-0.67 8.04 -0.34 4.08 0 0 Z " fill="#02080B" transform="translate(1785,938)"/>
<path d="M0 0 C8.91 0 17.82 0 27 0 C26.67 3.63 26.34 7.26 26 11 C24.35 11 22.7 11 21 11 C20.67 9.35 20.34 7.7 20 6 C17.36 5.67 14.72 5.34 12 5 C12 8.96 12 12.92 12 17 C15.63 17 19.26 17 23 17 C22.67 18.65 22.34 20.3 22 22 C18.37 22 14.74 22 11 22 C11.33 25.3 11.66 28.6 12 32 C13.65 32.33 15.3 32.66 17 33 C17 34.32 17 35.64 17 37 C11.39 37 5.78 37 0 37 C0 35.68 0 34.36 0 33 C0.99 33 1.98 33 3 33 C3 23.76 3 14.52 3 5 C2.01 4.67 1.02 4.34 0 4 C0 2.68 0 1.36 0 0 Z " fill="#020506" transform="translate(1552,938)"/>
<path d="M0 0 C4.74547859 1.70135326 7.87954974 4.33947197 10.5 8.625 C12 12 12 12 12 15 C0.45 15 -11.1 15 -23 15 C-21.87372709 7.11608961 -21.87372709 7.11608961 -18.0625 4.125 C-17.35222656 3.55007813 -16.64195313 2.97515625 -15.91015625 2.3828125 C-11.09124276 -1.1057261 -5.74668592 -0.62651839 0 0 Z " fill="#55D1DD" transform="translate(1191,726)"/>
<path d="M0 0 C3.94468051 2.3113932 6.81412483 4.7091402 8.55078125 9.05078125 C8.55078125 10.70078125 8.55078125 12.35078125 8.55078125 14.05078125 C-2.66921875 14.05078125 -13.88921875 14.05078125 -25.44921875 14.05078125 C-24.26536225 5.76378573 -24.26536225 5.76378573 -20.44921875 2.05078125 C-14.68290267 -2.12979791 -6.59007596 -2.55404858 0 0 Z " fill="#2584C0" transform="translate(2137.44921875,527.94921875)"/>
<path d="M0 0 C3.93895645 3.83795757 4.03623058 5.21738348 5 11 C-6.55 11 -18.1 11 -30 11 C-28.92617021 4.55702127 -27.70118496 2.18250962 -23 -2 C-15.31437918 -5.9282062 -6.94796905 -4.8258518 0 0 Z " fill="#53CEDD" transform="translate(1427,730)"/>
<path d="M0 0 C3.93895645 3.83795757 4.03623058 5.21738348 5 11 C-6.55 11 -18.1 11 -30 11 C-28.92617021 4.55702127 -27.70118496 2.18250962 -23 -2 C-15.31437918 -5.9282062 -6.94796905 -4.8258518 0 0 Z " fill="#4DC5D9" transform="translate(1429,531)"/>
<path d="M0 0 C5.32697239 1.45281065 8.36402802 5.08111378 12 9 C9.71203922 11.62176661 9.22997927 11.97072991 5.5625 12.4375 C2 12 2 12 -0.4375 10.375 C-2.42769679 7.34990088 -2.46382725 5.55600891 -2 2 C-1.34 1.34 -0.68 0.68 0 0 Z " fill="#46B7CE" transform="translate(1417,959)"/>
<path d="M0 0 C0.66 0 1.32 0 2 0 C2.50512244 1.60256108 3.00391627 3.20711792 3.5 4.8125 C3.7784375 5.70582031 4.056875 6.59914063 4.34375 7.51953125 C5 10 5 10 5 13 C2.36 13 -0.28 13 -3 13 C-2.45144652 8.428721 -1.58255197 4.32564205 0 0 Z " fill="#41A9BE" transform="translate(1128,946)"/>
<path d="M0 0 C0.66 0.33 1.32 0.66 2 1 C2.6328125 3.50390625 2.6328125 3.50390625 3.125 6.5625 C3.29257813 7.57441406 3.46015625 8.58632813 3.6328125 9.62890625 C3.75398438 10.41136719 3.87515625 11.19382812 4 12 C1.69 12 -0.62 12 -3 12 C-2.68950274 10.56206608 -2.3765224 9.1246682 -2.0625 7.6875 C-1.88847656 6.88699219 -1.71445313 6.08648438 -1.53515625 5.26171875 C-1 3 -1 3 0 0 Z " fill="#3FAFCF" transform="translate(1642,946)"/>
<path d="M0 0 C0.66 0.33 1.32 0.66 2 1 C-1.96 4.96 -5.92 8.92 -10 13 C-10 9.28115772 -9.1259934 8.63852271 -6.6875 5.9375 C-5.76517578 4.89916016 -5.76517578 4.89916016 -4.82421875 3.83984375 C-3 2 -3 2 0 0 Z " fill="#165F56" transform="translate(378,545)"/>
<path d="M0 0 C0.66 0.33 1.32 0.66 2 1 C-0.31 3.31 -2.62 5.62 -5 8 C-5.33 7.34 -5.66 6.68 -6 6 C-4 4 -2 2 0 0 Z " fill="#D0F0E0" transform="translate(495,691)"/>
</svg>
